<?xml version="1.0" standalone="no"?>
<!DOCTYPE svg PUBLIC "-//W3C//DTD SVG 20010904//EN"
 "http://www.w3.org/TR/2001/REC-SVG-20010904/DTD/svg10.dtd">
<svg version="1.0" xmlns="http://www.w3.org/2000/svg"
 width="1000pt" height="1000pt" viewBox="0 0 1000 1000"
 preserveAspectRatio="xMidYMid meet">
<metadata>
Created by potrace 1.16, written by Peter Selinger 2001-2019
</metadata>
<g transform="translate(0.000000,1000.000000) scale(0.100000,-0.100000)"
fill="#000000" stroke="none">
<path d="M4810 7703 c-196 -12 -500 -75 -694 -143 -181 -64 -436 -182 -436
-201 0 -5 5 -18 12 -28 11 -17 21 -14 171 60 301 147 643 236 985 255 l122 7
0 29 c0 31 1 31 -160 21z"/>
<path d="M5030 7683 l0 -30 123 -7 c341 -19 683 -108 984 -255 153 -75 160
-78 172 -59 7 11 11 21 9 23 -14 13 -133 73 -223 113 -311 140 -617 215 -957
237 l-108 7 0 -29z"/>
<path d="M4677 7585 c-196 -24 -400 -73 -587 -142 -134 -50 -360 -160 -360
-176 0 -15 -37 -36 -60 -35 -22 2 -172 -99 -290 -192 -124 -99 -321 -296 -420
-420 -93 -118 -194 -268 -192 -290 1 -23 -20 -60 -35 -60 -7 0 -40 -55 -72
-122 -184 -382 -260 -717 -260 -1148 0 -431 76 -766 260 -1147 32 -68 65 -123
72 -123 15 0 36 -37 35 -60 -2 -22 99 -172 192 -290 99 -124 296 -321 420
-420 118 -93 268 -194 290 -192 23 1 60 -20 60 -35 0 -7 55 -40 123 -72 381
-184 716 -260 1147 -260 431 0 766 76 1148 260 67 32 122 65 122 72 0 15 37
36 60 35 22 -2 172 99 290 192 124 99 321 296 420 420 93 118 194 268 192 290
-1 23 20 60 35 60 7 0 40 55 72 123 184 381 260 716 260 1147 0 431 -76 766
-260 1148 -32 67 -65 122 -72 122 -15 0 -36 37 -35 60 2 22 -99 172 -192 290
-99 124 -296 321 -420 420 -118 93 -268 194 -290 192 -23 -1 -60 20 -60 35 0
14 -191 110 -323 162 -185 74 -421 132 -634 155 -156 18 -487 18 -636 1z m638
-91 c470 -58 894 -239 1275 -546 432 -347 758 -878 869 -1418 55 -265 69 -600
36 -855 -54 -419 -227 -840 -487 -1188 -399 -533 -1021 -896 -1683 -982 -173
-23 -477 -23 -650 0 -662 86 -1284 449 -1683 982 -260 348 -433 769 -487 1188
-33 255 -19 590 36 855 160 778 723 1462 1461 1779 418 179 855 241 1313 185z"/>
<path d="M4795 7463 c-299 -26 -647 -122 -895 -248 l-50 -26 32 -59 c18 -33
39 -60 46 -60 7 0 38 16 69 36 30 19 57 33 60 31 2 -3 -24 -30 -59 -60 -55
-49 -64 -54 -78 -42 -14 12 -21 11 -59 -11 -34 -19 -47 -22 -58 -13 -11 9 -12
9 -8 -3 4 -9 -4 -21 -19 -31 -28 -19 -31 -16 -41 35 -4 20 -17 46 -30 58 l-24
22 -68 -46 c-245 -164 -556 -483 -692 -708 -21 -35 -21 -38 -6 -62 13 -20 29
-27 66 -32 l49 -7 -18 -31 c-13 -21 -25 -30 -38 -28 -12 3 -16 0 -9 -6 6 -5
33 -12 62 -16 l52 -6 66 97 c61 90 65 99 53 121 -17 33 -77 72 -110 72 -14 0
-34 -7 -42 -16 -17 -16 -21 -8 -8 13 26 42 108 31 161 -21 35 -35 56 -39 45
-11 -3 7 1 12 9 12 8 -1 44 32 80 74 61 72 64 77 49 94 -16 16 -16 16 5 4 20
-12 25 -10 52 16 25 23 28 31 19 43 -10 11 -27 13 -78 9 l-65 -6 60 34 c33 19
65 35 71 35 14 0 44 -33 44 -48 0 -7 2 -12 5 -12 3 0 50 36 105 81 l99 81 -14
37 c-29 70 -100 112 -134 79 -10 -11 -11 -10 -5 5 7 20 44 32 78 23 36 -9 85
-60 92 -95 7 -34 18 -40 28 -15 4 9 9 14 13 11 3 -4 18 2 32 12 40 29 183 112
209 122 12 5 22 16 22 26 0 12 3 14 8 6 5 -9 42 2 135 40 116 47 127 53 127
77 0 14 9 38 19 54 48 72 141 76 197 9 21 -24 21 -24 102 -12 l82 12 1 46 1
46 12 -40 c14 -48 41 -55 96 -28 27 14 36 26 41 53 l6 35 19 -42 19 -43 105 0
c58 0 114 -3 126 -6 17 -4 26 2 43 31 37 63 124 81 177 37 26 -22 44 -55 44
-80 0 -15 14 -22 80 -37 44 -10 83 -15 88 -11 4 4 13 22 19 39 l12 32 -2 -44
c-1 -42 0 -45 28 -53 41 -10 106 8 112 33 9 32 23 10 23 -34 l0 -42 100 -43
c55 -23 107 -42 116 -42 21 0 74 88 74 124 0 16 -7 38 -17 48 -15 17 -15 18 1
18 10 0 23 -14 32 -35 19 -46 5 -107 -32 -146 -31 -32 -25 -51 9 -30 21 13 21
13 7 -4 -9 -11 -11 -20 -5 -22 6 -2 48 -25 95 -52 63 -37 88 -47 98 -39 9 8
11 7 7 -4 -6 -16 41 -58 64 -58 24 0 31 37 16 86 -8 26 -13 50 -11 52 7 7 76
-82 76 -98 0 -19 -30 -50 -48 -50 -23 0 -12 -17 31 -47 23 -17 68 -54 100 -82
l58 -51 31 17 c70 42 109 118 76 151 -9 9 -9 12 0 12 6 0 16 -9 22 -19 27 -52
-5 -129 -65 -158 -39 -19 -42 -40 -4 -35 18 2 20 0 10 -7 -11 -7 1 -27 60 -94
41 -47 80 -86 87 -86 7 -1 17 -12 22 -26 5 -14 15 -25 21 -25 7 0 10 -3 6 -6
-3 -3 29 -56 70 -117 l76 -112 54 0 c44 -1 52 1 48 15 -3 11 12 25 55 48 33
19 60 38 60 43 0 14 -8 11 -72 -23 -58 -32 -60 -33 -74 -14 -23 31 -18 39 46
75 l61 33 -23 36 c-154 256 -491 590 -757 751 -60 36 -53 39 -99 -41 -29 -52
-37 -55 -67 -32 -19 14 -19 15 13 74 18 33 30 64 27 70 -16 26 -278 141 -440
194 -160 51 -373 93 -572 111 l-72 6 -3 -73 c-3 -67 -5 -73 -25 -76 -21 -3
-22 1 -26 75 l-3 78 -2 -77 -2 -78 -44 0 c-26 0 -47 5 -50 13 -5 10 -7 10 -12
0 -3 -7 -15 -13 -26 -13 -18 0 -19 4 -12 43 8 45 7 83 -2 98 -5 9 -28 9 -109
2z"/>
<path d="M4888 7165 c-14 -30 -24 -32 -33 -4 -6 18 -13 20 -63 16 l-57 -4 0
-49 c0 -42 -3 -49 -20 -49 -17 0 -20 6 -18 48 l1 48 -36 -7 c-135 -24 -215
-44 -230 -57 -10 -9 -27 -14 -38 -11 -11 3 -33 0 -49 -6 l-29 -11 27 -26 c17
-17 43 -29 74 -34 26 -5 73 -12 104 -17 30 -6 89 -23 131 -40 l76 -31 133 11
c154 13 360 0 524 -32 345 -68 703 -256 961 -502 44 -43 116 -101 160 -129 43
-28 122 -95 175 -148 186 -185 279 -383 295 -625 5 -73 2 -110 -15 -186 -19
-82 -21 -113 -15 -230 25 -535 -171 -1053 -546 -1444 -205 -214 -482 -391
-763 -489 -15 -6 -10 -16 37 -73 30 -37 58 -80 61 -96 9 -38 24 -43 70 -24 41
18 39 28 -13 56 -26 15 -30 19 -12 14 14 -3 40 -15 58 -25 35 -20 72 -12 72
15 0 8 7 29 15 47 l15 34 -7 -44 c-7 -53 -12 -54 126 24 128 71 140 82 121 95
-8 6 -35 15 -59 22 -34 9 -40 13 -27 20 20 11 51 2 89 -24 39 -28 43 -17 14
34 -41 71 -42 98 -1 30 21 -34 41 -62 45 -62 4 0 45 28 89 62 90 67 91 74 5
89 l-40 6 45 1 c25 0 54 -3 65 -8 34 -13 55 15 57 79 1 38 2 45 5 21 7 -67 10
-67 83 5 68 68 69 70 63 110 l-6 40 22 -20 23 -20 24 30 c13 17 31 38 40 49
15 17 14 20 -20 48 -20 16 -36 36 -36 44 0 24 32 16 66 -17 l31 -30 60 93 c74
116 73 114 78 137 2 10 15 31 29 46 31 33 33 51 7 60 -42 13 -114 -46 -127
-103 -10 -45 -14 -49 -10 -9 9 72 88 139 146 124 11 -3 24 0 29 7 14 17 101
232 101 250 0 16 -29 36 -54 36 -8 0 -17 -13 -21 -32 -4 -18 -9 -41 -11 -50
-4 -13 -1 -16 10 -12 24 9 47 -3 40 -21 -4 -10 -20 -15 -50 -15 -39 0 -44 2
-36 18 5 9 12 43 15 75 9 91 31 103 89 49 l27 -25 11 28 c10 25 39 136 55 208
5 26 4 28 -17 22 -13 -4 -36 -14 -53 -23 -27 -14 -29 -14 -17 1 8 9 34 26 58
37 50 25 54 38 20 83 -38 52 -41 64 -8 33 18 -16 34 -27 37 -24 9 8 30 287 22
294 -8 8 -53 -20 -84 -54 -15 -16 -23 -20 -23 -11 0 28 31 59 70 70 60 18 50
34 -22 37 -85 4 -87 12 -3 12 l68 0 -7 102 c-4 57 -9 104 -11 107 -3 2 -21 -9
-41 -24 -30 -23 -34 -24 -25 -7 6 11 22 29 36 40 36 29 32 55 -15 86 -48 31
-53 43 -9 21 17 -9 33 -14 36 -12 3 3 0 32 -7 64 -23 115 -29 131 -52 135 -28
4 -33 22 -9 34 18 8 19 11 5 54 -8 25 -17 50 -19 57 -3 8 -15 8 -50 -2 -39
-12 -47 -12 -51 0 -9 22 3 33 46 40 22 4 40 8 40 10 0 12 -103 231 -115 245
-8 9 -15 23 -15 31 0 17 -28 59 -39 59 -12 0 -31 -48 -31 -78 0 -15 9 -45 21
-66 11 -21 16 -35 11 -32 -17 10 -42 73 -42 106 0 18 7 47 16 66 16 33 16 34
-27 104 -24 38 -46 70 -49 70 -3 0 -14 -15 -23 -33 l-18 -34 -66 63 c-70 67
-72 77 -17 100 19 8 34 19 34 24 0 5 -38 49 -84 97 l-84 88 -10 -45 -11 -45 2
52 c1 65 -23 98 -65 89 -16 -3 -28 -1 -28 4 0 6 10 10 23 10 20 1 18 4 -18 37
-49 43 -192 153 -199 153 -9 0 -7 -52 4 -90 l9 -35 -20 25 c-17 20 -20 33 -15
72 7 54 -2 61 -26 21 -9 -16 -31 -41 -48 -58 -29 -28 -29 -25 11 32 23 35 41
64 38 66 -23 19 -158 97 -167 97 -15 0 -15 -14 -2 -60 9 -32 8 -33 -6 -15 -8
11 -17 37 -21 58 -8 51 -32 63 -85 42 -22 -9 -42 -14 -45 -12 -2 2 10 10 27
17 16 7 30 16 30 19 0 4 -41 24 -91 45 -83 34 -93 36 -108 22 -25 -23 -39 -19
-34 9 4 20 0 25 -23 30 -16 4 -39 11 -52 16 -34 13 -42 11 -42 -11 0 -29 -21
-70 -37 -70 -22 0 -26 26 -8 60 9 18 13 36 8 40 -15 15 -223 52 -252 45 -17
-3 -32 -2 -36 4 -3 6 -22 11 -41 11 -28 0 -34 -4 -34 -20 0 -28 45 -68 84 -75
73 -11 78 -14 23 -11 -64 3 -98 26 -122 84 l-14 32 -116 0 c-113 0 -116 0
-127 -25z"/>
<path d="M4160 7022 c-105 -44 -115 -50 -118 -76 -5 -40 10 -51 44 -32 59 32
61 34 39 50 -16 12 -18 17 -8 27 11 10 18 9 39 -7 28 -20 44 -19 202 22 16 5
-49 64 -69 64 -8 0 -66 -22 -129 -48z"/>
<path d="M3975 6936 c-11 -7 -57 -35 -102 -61 -46 -27 -83 -52 -83 -56 0 -4
17 -14 38 -22 l37 -16 -30 0 c-17 -1 -40 6 -52 14 -18 13 -22 13 -36 -3 -8 -9
-18 -39 -23 -67 l-9 -50 -3 43 c-2 23 -6 42 -10 42 -19 0 -235 -190 -226 -199
3 -3 33 -8 67 -12 58 -5 60 -6 35 -17 -22 -9 -36 -8 -69 3 -23 8 -46 15 -50
15 -5 0 11 -25 36 -55 60 -75 57 -82 -7 -16 l-53 54 -67 -74 c-37 -41 -68 -77
-68 -81 0 -4 19 -11 43 -15 l42 -8 -60 -5 -60 -5 2 -65 c1 -61 1 -63 -9 -27
-5 20 -14 37 -19 37 -4 0 -32 -35 -60 -77 -48 -71 -51 -79 -41 -107 14 -36 10
-41 -17 -26 -19 10 -23 7 -38 -27 -10 -21 -23 -45 -31 -55 -12 -14 -9 -18 22
-33 41 -20 60 -40 51 -55 -10 -17 -32 -12 -65 16 -17 15 -33 25 -35 23 -14
-15 -95 -234 -95 -258 0 -17 -4 -31 -9 -31 -7 0 -31 -51 -31 -66 0 -10 44 -2
70 11 32 16 49 43 61 90 6 25 7 26 8 7 1 -29 -25 -80 -53 -104 -11 -10 -38
-21 -58 -24 -41 -7 -39 0 -74 -193 -19 -102 -15 -114 36 -109 22 3 25 8 28 50
l3 48 -30 -6 c-18 -4 -31 -2 -31 4 0 15 24 31 56 38 l29 5 3 -86 c3 -100 -7
-112 -70 -78 -21 12 -40 18 -42 14 -10 -15 -19 -261 -10 -261 5 0 27 15 49 32
36 30 38 30 24 8 -9 -14 -30 -34 -47 -45 -17 -11 -31 -28 -32 -37 0 -9 21 -38
48 -63 l47 -47 -40 26 c-22 14 -43 26 -48 26 -5 0 -6 -26 -2 -57 12 -115 28
-228 32 -236 7 -11 50 29 74 68 l19 30 0 -27 c0 -25 -25 -55 -75 -92 -18 -14
-11 -15 70 -11 l90 5 -77 -13 c-42 -7 -80 -16 -84 -19 -6 -7 19 -128 37 -175
12 -33 24 -29 54 20 15 23 24 34 21 24 -3 -10 -6 -22 -6 -27 0 -5 -12 -22 -26
-39 -33 -40 -25 -64 28 -84 48 -19 47 -31 0 -18 -18 5 -32 8 -32 6 0 -1 18
-45 39 -96 31 -74 43 -93 58 -92 10 2 25 -2 33 -7 13 -9 13 -11 0 -20 -8 -5
-19 -11 -25 -13 -5 -2 2 -22 18 -45 15 -23 27 -46 27 -52 0 -14 17 -13 43 4
12 8 32 17 45 21 18 5 22 2 22 -15 0 -15 -11 -26 -37 -37 -21 -8 -40 -17 -42
-19 -8 -8 124 -196 151 -215 15 -11 26 -24 23 -29 -3 -5 6 -21 20 -37 24 -27
25 -28 40 -9 27 35 14 97 -28 146 l-22 25 24 -20 c49 -42 60 -97 36 -173 -6
-19 7 -37 86 -117 51 -52 100 -95 109 -95 9 0 25 9 36 21 19 21 18 21 -14 50
-38 34 -48 36 -57 9 -8 -25 -35 -26 -35 -1 0 10 5 32 11 50 l11 32 25 -22 c13
-13 45 -35 71 -49 59 -32 62 -57 10 -85 -21 -11 -36 -24 -35 -30 4 -11 188
-154 200 -155 4 0 7 21 8 48 0 35 3 42 9 27 5 -11 9 -37 9 -57 1 -45 22 -60
63 -46 15 5 33 8 40 5 7 -2 1 -8 -14 -12 -16 -4 -28 -10 -28 -14 0 -13 243
-141 266 -141 11 0 2 56 -15 90 -19 39 -19 40 0 29 26 -13 42 -55 37 -96 -2
-20 1 -33 7 -33 6 0 16 15 23 33 7 17 21 43 32 57 17 21 16 17 -5 -33 -14 -32
-25 -61 -25 -65 0 -8 70 -37 74 -30 1 1 13 32 25 68 13 36 34 84 47 106 l24
42 -58 23 c-103 41 -285 136 -377 196 -300 199 -511 441 -676 776 -261 533
-263 1151 -5 1692 114 237 316 496 514 657 18 15 40 44 48 65 32 77 97 176
158 241 58 62 63 70 58 105 -4 39 -14 44 -47 23z"/>
<path d="M4812 6891 c-11 -6 -6 -14 18 -31 27 -19 40 -22 98 -18 99 7 312 -9
432 -33 267 -53 560 -187 770 -350 31 -24 139 -64 148 -54 6 5 -142 125 -222
178 -234 158 -496 257 -797 301 -114 17 -424 22 -447 7z"/>
<path d="M5218 6764 c125 -62 229 -198 253 -329 16 -85 24 -103 60 -124 52
-32 98 -36 128 -12 96 78 234 140 318 142 21 1 49 4 62 8 22 6 16 12 -63 64
-222 143 -513 249 -751 272 l-60 6 53 -27z"/>
<path d="M4270 6753 c-72 -12 -402 -202 -417 -239 -2 -7 -24 -24 -46 -38 -63
-37 -284 -268 -364 -381 -155 -219 -255 -456 -314 -743 -30 -144 -37 -449 -15
-602 51 -344 162 -620 355 -880 68 -92 242 -272 336 -350 142 -116 307 -214
483 -285 89 -37 93 -37 112 -20 11 10 20 21 20 25 0 4 -33 19 -72 35 -95 36
-212 95 -318 158 -47 27 -112 66 -145 85 -77 46 -155 113 -193 166 -17 23 -60
78 -97 121 -222 267 -366 585 -420 925 -22 139 -22 400 0 540 102 652 525
1188 1138 1441 73 30 84 37 65 42 -25 7 -67 7 -108 0z"/>
<path d="M5250 6585 c97 -97 176 -169 178 -162 5 25 -37 121 -76 172 -50 66
-124 120 -196 145 -33 11 -65 20 -70 20 -6 0 68 -79 164 -175z"/>
<path d="M4977 6722 c-15 -16 -14 -23 9 -87 17 -47 28 -100 31 -161 l6 -91
101 -7 c93 -6 174 -16 251 -32 25 -5 -4 29 -170 195 -110 111 -203 201 -206
201 -3 0 -13 -8 -22 -18z"/>
<path d="M4380 6691 c-269 -101 -535 -284 -727 -501 -240 -270 -413 -659 -438
-981 l-6 -74 16 35 c9 19 29 55 45 80 16 25 39 76 50 113 53 171 129 296 268
439 145 149 312 254 513 322 120 41 346 159 395 207 36 36 45 52 59 114 9 42
31 97 51 131 l35 59 -23 18 c-36 30 -115 67 -140 67 -13 -1 -57 -14 -98 -29z"/>
<path d="M4670 6414 c-66 -66 -79 -84 -60 -80 87 20 175 36 196 36 13 0 24 6
24 13 0 16 -58 117 -68 117 -4 0 -46 -39 -92 -86z"/>
<path d="M2790 6109 c-137 -270 -226 -597 -255 -931 -7 -77 -6 -78 19 -89 20
-9 35 -9 65 -1 21 7 43 12 50 12 18 0 13 -48 -6 -59 -17 -10 -17 -10 0 -11 11
0 17 -8 17 -23 0 -18 8 -25 40 -34 36 -9 41 -8 39 6 -10 70 48 520 77 595 4
10 0 18 -10 22 -24 9 -56 68 -56 104 0 65 50 115 123 122 25 3 32 12 58 73 16
38 29 73 29 77 0 4 -21 19 -47 33 -38 20 -42 24 -18 19 17 -4 38 -11 47 -15
29 -15 39 -10 54 26 18 45 18 80 -2 99 -22 22 -30 20 -50 -14 l-18 -29 -36 39
c-56 60 -82 56 -120 -21z"/>
<path d="M7120 6134 c-25 -14 -46 -27 -48 -29 -2 -2 4 -17 12 -34 28 -54 18
-117 -25 -151 -19 -15 -18 -18 13 -97 24 -60 37 -82 48 -79 59 16 65 16 33 -1
-43 -22 -43 -51 2 -98 29 -31 39 -36 62 -31 27 6 27 5 -11 -29 l-38 -34 23
-113 c12 -62 28 -116 33 -120 15 -11 55 -10 99 3 26 7 44 21 57 42 l20 32 0
-26 c0 -54 -75 -98 -150 -87 -33 5 -39 -8 -12 -28 16 -13 16 -14 -2 -8 -15 6
-17 3 -13 -12 8 -29 20 -193 18 -251 -2 -43 1 -53 14 -53 23 0 65 49 65 76 0
22 4 23 78 27 l77 3 -77 2 -78 2 0 30 0 30 76 0 76 0 -7 78 c-17 200 -59 416
-112 577 -56 172 -158 405 -177 405 -6 0 -31 -12 -56 -26z"/>
<path d="M6871 5095 c-20 -30 -24 -49 -27 -147 -22 -606 -325 -1151 -824
-1482 -100 -67 -265 -152 -370 -192 -41 -15 -76 -29 -78 -30 -1 -1 3 -13 9
-28 14 -31 9 -32 159 31 237 99 424 228 616 424 184 189 281 328 377 542 111
250 156 445 164 725 3 105 4 192 2 192 -2 0 -15 -16 -28 -35z"/>
<path d="M6622 4787 c-126 -128 -162 -169 -162 -189 0 -25 2 -26 30 -18 96 28
208 122 253 213 25 51 52 145 44 153 -2 2 -76 -70 -165 -159z"/>
<path d="M2680 4920 c0 -17 -7 -20 -43 -20 -24 0 -48 -5 -55 -12 -9 -9 -12 -9
-12 0 0 7 -10 12 -21 12 -21 0 -21 -3 -15 -77 28 -311 106 -611 221 -851 l55
-114 64 36 c56 31 65 34 70 19 7 -18 4 -21 -67 -60 -26 -14 -45 -28 -43 -30 2
-2 30 12 62 31 32 19 62 32 66 29 20 -11 3 -31 -52 -61 -33 -19 -60 -36 -60
-39 0 -2 28 11 63 29 34 19 69 33 77 31 8 -1 28 8 43 21 l29 23 -24 36 c-28
45 -72 66 -99 49 -28 -18 -23 -2 11 33 l29 30 -46 113 c-43 106 -47 112 -75
112 -62 0 -122 -42 -130 -90 l-4 -25 -8 28 c-15 51 54 117 122 117 22 0 32 5
32 15 0 8 -8 15 -17 15 -13 0 -15 2 -5 8 10 7 7 29 -14 108 -14 54 -28 119
-31 144 -3 25 -8 49 -12 53 -16 16 -43 -8 -71 -62 l-30 -56 7 70 c7 85 16 99
61 91 32 -5 33 -4 28 22 -3 15 -11 72 -16 126 -11 105 -16 116 -62 116 -21 0
-28 -5 -28 -20z"/>
<path d="M7236 4877 c-3 -12 -7 -49 -10 -82 -3 -33 -8 -81 -12 -107 -7 -48 -7
-48 29 -63 52 -22 113 -19 137 5 12 12 20 15 20 8 -1 -51 -104 -77 -170 -43
-24 12 -30 13 -30 2 0 -7 6 -19 13 -26 10 -10 9 -12 -2 -9 -9 2 -22 -30 -42
-112 -16 -63 -34 -127 -40 -143 -9 -21 -8 -31 2 -45 12 -15 12 -16 -2 -5 -13
10 -17 7 -28 -25 -8 -20 -32 -79 -53 -129 l-40 -93 21 -26 c12 -15 21 -34 21
-43 0 -9 28 -31 69 -53 l68 -38 56 118 c118 246 195 542 223 855 l6 77 -71 0
c-39 0 -80 -5 -90 -12 -15 -9 -26 -9 -45 0 -23 10 -26 9 -30 -11z"/>
<path d="M3216 4775 c16 -170 79 -381 162 -551 56 -113 188 -324 211 -338 8
-5 11 14 11 61 0 78 5 89 43 98 31 8 34 17 11 36 -25 21 -88 117 -126 194 -40
79 -70 164 -88 246 -10 45 -19 60 -47 79 -52 36 -127 122 -157 182 l-26 53 6
-60z"/>
<path d="M6737 4700 c-53 -71 -145 -136 -230 -161 -51 -16 -71 -27 -75 -42 -9
-33 -89 -188 -141 -271 -70 -113 -161 -217 -292 -332 -233 -205 -259 -220
-269 -157 l-5 32 -65 -55 c-36 -31 -91 -74 -122 -95 -53 -36 -58 -43 -58 -77
0 -20 9 -57 20 -81 11 -24 20 -60 20 -82 0 -45 18 -89 36 -89 23 0 135 46 240
97 428 213 768 604 914 1053 37 114 75 281 68 300 -2 6 -20 -12 -41 -40z"/>
<path d="M4380 4528 c-88 -19 -186 -51 -261 -85 -68 -31 -77 -38 -87 -71 -14
-44 -10 -49 25 -33 16 7 54 21 86 31 l57 18 0 -74 c0 -137 51 -314 104 -362
38 -35 63 -37 95 -4 38 37 51 85 58 207 5 93 -8 197 -32 258 -7 15 1 17 86 16
52 -1 108 -4 124 -8 29 -6 30 -8 33 -70 l3 -64 60 97 c33 53 59 104 57 113 -2
12 -20 22 -53 29 -60 14 -292 16 -355 2z"/>
<path d="M3007 3829 c-48 -32 -63 -48 -26 -29 11 7 22 10 24 8 5 -6 25 -47 25
-51 0 -2 -25 -21 -56 -41 -38 -26 -54 -42 -50 -52 3 -8 27 -45 53 -82 145
-205 413 -472 616 -613 l78 -54 19 25 c11 14 20 30 20 35 1 34 25 88 50 111
32 31 30 48 -3 39 -14 -4 -18 -3 -9 2 8 7 -21 34 -100 93 -62 46 -163 134
-224 195 -108 107 -112 110 -143 101 -48 -14 -108 8 -131 47 -25 41 -26 97 -1
129 l20 24 -47 72 c-26 39 -52 72 -58 72 -6 0 -32 -14 -57 -31z"/>
<path d="M6836 3725 l-48 -69 22 -18 c12 -10 34 -27 48 -39 17 -12 5 -9 -29
10 -62 34 -63 34 -93 -26 -21 -41 -20 -62 2 -86 16 -20 16 -20 -8 -13 -14 3
-34 9 -45 11 -15 4 -40 -15 -105 -80 l-85 -85 20 -36 c28 -52 68 -78 112 -71
29 5 33 4 23 -8 -7 -9 -29 -15 -50 -15 -44 0 -91 34 -117 83 -14 28 -17 29
-28 13 -7 -9 -16 -17 -19 -16 -15 2 -165 -124 -159 -133 3 -6 1 -7 -6 -3 -15
9 -81 -31 -81 -49 0 -21 33 -35 87 -36 l48 -1 -40 -18 c-22 -11 -49 -21 -60
-24 -18 -5 -14 -11 30 -56 27 -27 53 -50 57 -50 15 0 176 116 258 186 93 79
290 278 360 363 60 73 150 203 150 216 0 6 -23 28 -51 49 -34 25 -49 43 -47
54 4 14 -4 17 -47 17 l-51 0 -48 -70z"/>
<path d="M4510 3407 c-41 -4 -136 -6 -210 -4 l-135 5 65 -33 c36 -19 98 -46
138 -61 l73 -27 39 38 c23 23 49 38 67 39 16 2 38 8 48 14 18 10 18 12 5 25
-12 10 -31 11 -90 4z"/>
<path d="M5310 3289 c-43 -17 -249 -49 -316 -49 -57 0 -69 -4 -114 -36 -51
-36 -58 -37 -40 -5 9 18 7 18 -53 4 -34 -8 -68 -17 -75 -19 -15 -4 18 -97 81
-226 35 -73 48 -90 83 -109 40 -21 48 -22 201 -16 132 6 365 36 379 50 2 2 -5
26 -15 53 -11 27 -29 104 -41 169 -37 205 -36 205 -90 184z"/>
<path d="M3785 3068 c-24 -28 -25 -33 -11 -43 13 -10 13 -15 -5 -44 -11 -18
-18 -35 -16 -38 3 -2 14 12 26 32 18 31 23 34 41 25 17 -9 18 -15 10 -33 -10
-20 -10 -21 4 -4 13 17 16 17 45 2 37 -19 38 -25 6 -93 -14 -30 -25 -56 -25
-59 0 -2 51 -29 113 -58 239 -115 539 -193 850 -221 l77 -6 0 76 0 76 30 0 29
0 3 -72 c3 -75 6 -70 23 35 6 36 7 37 49 37 41 0 44 -2 50 -31 3 -17 6 -46 6
-63 0 -58 5 -60 131 -47 321 34 601 111 847 235 50 25 92 47 92 49 0 1 -9 33
-20 71 -18 65 -19 70 -2 82 9 7 19 14 22 14 3 0 11 4 19 9 12 8 12 12 -2 26
-10 9 -17 25 -17 37 0 23 9 26 -123 -42 -88 -45 -107 -59 -107 -78 0 -61 63
-139 105 -128 20 5 20 5 1 -10 -23 -17 -52 -10 -84 20 -31 28 -52 69 -52 101
0 33 -22 29 -31 -6 -5 -16 -7 -18 -8 -6 -1 24 -8 22 -113 -24 -131 -59 -236
-93 -358 -119 -70 -14 -108 -27 -114 -38 -15 -27 -58 -62 -84 -69 -37 -9 -100
14 -124 47 -21 29 -24 30 -110 30 l-88 0 -1 -57 -2 -58 -7 58 c-9 74 -22 88
-53 59 -57 -54 -167 -70 -204 -29 -11 12 -24 32 -28 45 -5 17 -12 21 -27 17
-12 -4 -27 0 -40 12 -15 12 -22 14 -25 6 -10 -27 -46 -63 -64 -63 -26 0 -25
-44 1 -70 14 -14 16 -20 7 -20 -21 0 -46 32 -53 67 -5 23 -13 33 -37 40 -39
11 -77 65 -77 108 0 29 -5 35 -41 49 -22 9 -45 14 -50 11 -5 -4 -9 -2 -9 3 0
8 -69 42 -85 42 -14 0 -2 -66 16 -91 34 -48 17 -52 -33 -8 -52 44 -58 62 -30
92 15 17 15 21 2 29 -22 13 -214 118 -216 118 -1 0 -14 -14 -29 -32z"/>
<path d="M3496 7250 c-179 -122 -247 -179 -416 -349 -155 -156 -247 -268 -354
-434 l-56 -87 26 -12 c23 -11 29 -10 38 6 93 153 257 363 383 490 128 130 323
286 461 371 64 39 71 49 49 79 -11 15 -23 10 -131 -64z"/>
<path d="M6364 7298 c-5 -16 -2 -25 10 -33 157 -94 367 -258 500 -391 133
-134 296 -341 392 -500 9 -15 15 -16 34 -8 22 10 21 12 -55 124 -42 63 -110
156 -150 205 -74 91 -293 311 -395 397 -61 51 -260 192 -302 214 -25 13 -27
12 -34 -8z"/>
<path d="M2597 6253 c-169 -324 -279 -727 -302 -1110 l-7 -113 29 0 30 0 7
123 c19 341 108 683 255 984 74 150 77 160 60 171 -10 7 -23 12 -28 12 -5 0
-24 -30 -44 -67z"/>
<path d="M7329 6308 c-15 -10 -8 -30 62 -171 147 -301 236 -643 255 -984 l7
-123 30 0 29 0 -7 108 c-18 290 -82 575 -187 842 -39 98 -157 340 -166 339 -4
0 -14 -5 -23 -11z"/>
<path d="M2295 4858 c15 -251 69 -527 145 -742 64 -181 182 -436 201 -436 5 0
18 5 28 12 17 11 14 21 -60 171 -147 301 -236 643 -255 985 l-7 122 -30 0 -29
0 7 -112z"/>
<path d="M7646 4848 c-19 -342 -108 -684 -255 -985 -74 -150 -77 -160 -60
-171 10 -7 23 -12 28 -12 19 0 137 255 201 436 76 215 130 491 145 742 l7 112
-29 0 -30 0 -7 -122z"/>
<path d="M2688 3629 c-16 -9 -12 -19 39 -97 96 -150 193 -271 332 -414 148
-153 257 -245 436 -367 109 -75 121 -80 132 -65 22 30 15 40 -49 79 -133 81
-330 239 -452 361 -122 122 -280 319 -361 452 -39 63 -47 69 -77 51z"/>
<path d="M7235 3578 c-81 -133 -239 -330 -361 -452 -122 -122 -319 -280 -451
-361 -65 -39 -72 -49 -50 -79 11 -15 23 -10 132 65 175 120 285 211 425 355
144 148 207 225 320 390 74 108 79 120 64 131 -30 22 -40 15 -79 -49z"/>
<path d="M3692 2669 c-7 -10 -12 -23 -12 -28 0 -19 255 -137 435 -201 210 -73
499 -130 743 -145 l112 -7 0 29 0 30 -122 7 c-342 19 -684 108 -985 255 -150
74 -160 77 -171 60z"/>
<path d="M6136 2609 c-300 -147 -642 -236 -983 -255 l-123 -7 0 -30 0 -29 113
7 c383 23 786 133 1110 302 68 36 76 46 54 74 -11 14 -30 7 -171 -62z"/>
</g>
</svg>
